<svg xmlns="http://www.w3.org/2000/svg" id="Layer_1" viewBox="0 0 531.38 268.27"><defs><style>.cls-1{fill:#1c6887;}.cls-2{fill:#ebbb4e;}.cls-3{fill:#9fb456;}.cls-4{fill:#387c2b;}.cls-5{fill:#8bb4c6;}</style></defs><path class="cls-4" d="M298.04,78.39v41.76c0,.29-.24.53-.53.53l-23.52.02c-.29,0-.53-.24-.53-.53v-14.81c0-.13.04-.25.13-.35,6.02-6.74,15.92-18.12,23.52-26.96.33-.38.94-.15.94.35Z"></path><path class="cls-5" d="M282.65,36.26c-3.2,0-6,.78-8.22,1.73-.36.15-.75-.1-.75-.49V.54c0-.31.26-.55.56-.54,9.22.4,18.28,2.13,26.98,5.15.3.1.45.45.31.74l-13.94,30.58c-.1.23-.36.35-.6.29-1.52-.34-2.97-.48-4.36-.48Z"></path><path class="cls-5" d="M296.68,41.55c-.72-.57-1.49-1.12-2.33-1.66-.22-.14-.32-.43-.21-.67l14.02-30.75c.12-.27.44-.39.71-.27,9.27,4.16,17.79,9.81,24.78,16.44.21.2.22.53.03.75l-27.19,31.24c-.29.33-.84.2-.92-.24-.81-4.19-3.01-10.13-8.9-14.84Z"></path><path class="cls-3" d="M347.43,120.64l-41.61.03c-.29,0-.53-.24-.53-.53v-43.67c0-.48.59-.72.92-.37l41.61,43.64c.32.34.08.9-.39.9Z"></path><path class="cls-1" d="M354.62,69.31c0,4.93.04,32.03.06,46,0,.48-.59.71-.92.36l-46.3-48.58c-.19-.2-.2-.51-.02-.72l31.08-35.73c.22-.25.61-.24.82,0,9.99,11.73,15.27,25.07,15.27,38.66Z"></path><path class="cls-4" d="M137.82,260.29c-2.35,0-4.61-.31-6.78-.95-2.17-.63-3.91-1.45-5.23-2.46l2.31-5.12c1.23.9,2.72,1.63,4.45,2.21,1.74.57,3.49.86,5.25.86,1.34,0,2.43-.14,3.25-.42.83-.28,1.43-.65,1.83-1.11.39-.46.59-1,.59-1.62,0-.78-.31-1.41-.92-1.87-.62-.46-1.44-.84-2.46-1.13-1.02-.29-2.14-.57-3.34-.84-1.2-.27-2.42-.59-3.63-.97-1.22-.38-2.34-.88-3.36-1.51-1.02-.63-1.83-1.46-2.44-2.48-.6-1.02-.9-2.3-.9-3.84,0-1.68.45-3.21,1.34-4.6.9-1.39,2.26-2.49,4.1-3.32,1.83-.83,4.14-1.24,6.91-1.24,1.85,0,3.68.22,5.48.67,1.81.45,3.38,1.09,4.73,1.93l-2.14,5.12c-1.32-.76-2.67-1.32-4.07-1.7-1.4-.38-2.74-.57-4.03-.57s-2.42.15-3.23.44c-.81.29-1.41.69-1.79,1.2-.38.5-.57,1.06-.57,1.68,0,.78.31,1.41.92,1.89.62.48,1.43.85,2.44,1.11,1.01.27,2.13.53,3.36.8,1.23.27,2.45.6,3.65.99,1.2.39,2.31.89,3.32,1.49,1.01.6,1.83,1.41,2.46,2.44.63,1.02.95,2.29.95,3.8,0,1.65-.46,3.17-1.37,4.54-.91,1.37-2.29,2.48-4.14,3.32-1.85.84-4.16,1.26-6.93,1.26Z"></path><path class="cls-4" d="M165.67,260.12c-2.58,0-4.83-.5-6.76-1.51s-3.43-2.39-4.49-4.14c-1.06-1.75-1.6-3.74-1.6-5.98s.51-4.24,1.53-6.01c1.02-1.76,2.45-3.14,4.28-4.14,1.83-.99,3.9-1.49,6.19-1.49s4.21.48,5.98,1.43c1.78.95,3.19,2.3,4.22,4.03,1.04,1.74,1.55,3.82,1.55,6.26,0,.25-.01.54-.04.86-.03.32-.06.62-.08.9h-18.35v-3.82h14.91l-2.56,1.13c.03-1.18-.2-2.2-.67-3.07-.48-.87-1.13-1.55-1.97-2.04-.84-.49-1.82-.73-2.94-.73s-2.11.25-2.96.73c-.85.49-1.52,1.18-2,2.06-.48.88-.71,1.92-.71,3.13v1.01c0,1.26.28,2.35.84,3.28.56.92,1.33,1.63,2.31,2.12.98.49,2.16.74,3.53.74,1.18,0,2.22-.18,3.13-.55.91-.36,1.74-.91,2.5-1.64l3.49,3.78c-1.04,1.18-2.34,2.08-3.91,2.71-1.57.63-3.37.95-5.42.95Z"></path><path class="cls-4" d="M194.69,236.85c1.79,0,3.4.36,4.81,1.07,1.41.71,2.53,1.81,3.34,3.28s1.22,3.35,1.22,5.65v12.94h-6.55v-11.93c0-1.82-.4-3.16-1.2-4.03-.8-.87-1.93-1.3-3.38-1.3-1.04,0-1.97.22-2.79.67-.83.45-1.47,1.11-1.93,1.97-.46.87-.69,2.02-.69,3.44v11.17h-6.55v-22.6h6.26v6.26l-1.18-1.89c.81-1.51,1.97-2.67,3.49-3.49,1.51-.81,3.23-1.22,5.17-1.22Z"></path><path class="cls-4" d="M214.1,234.04c-1.23,0-2.23-.35-2.98-1.05-.76-.7-1.13-1.57-1.13-2.6s.38-1.9,1.13-2.6c.76-.7,1.75-1.05,2.98-1.05s2.19.33,2.96.99c.77.66,1.15,1.51,1.15,2.54,0,1.09-.38,2-1.13,2.71-.76.71-1.75,1.07-2.98,1.07ZM210.82,259.79v-22.6h6.55v22.6h-6.55Z"></path><path class="cls-4" d="M234.17,260.12c-2.38,0-4.5-.5-6.36-1.51-1.86-1.01-3.33-2.39-4.39-4.14-1.06-1.75-1.6-3.74-1.6-5.98s.53-4.28,1.6-6.03c1.06-1.75,2.53-3.12,4.39-4.12,1.86-.99,3.98-1.49,6.36-1.49s4.55.5,6.43,1.49c1.88.99,3.35,2.37,4.41,4.12,1.06,1.75,1.6,3.76,1.6,6.03s-.53,4.27-1.6,6.01c-1.06,1.74-2.53,3.11-4.41,4.12-1.88,1.01-4.02,1.51-6.43,1.51ZM234.17,254.75c1.12,0,2.11-.25,2.96-.74.85-.49,1.54-1.21,2.06-2.16.52-.95.78-2.07.78-3.36s-.26-2.44-.78-3.36c-.52-.92-1.2-1.63-2.06-2.12-.85-.49-1.83-.73-2.92-.73s-2.07.25-2.94.73c-.87.49-1.56,1.2-2.08,2.12s-.78,2.04-.78,3.36.26,2.41.78,3.36c.52.95,1.21,1.67,2.08,2.16.87.49,1.83.74,2.9.74Z"></path><path class="cls-4" d="M250.97,259.79v-22.6h6.26v6.43l-.88-1.89c.67-1.6,1.75-2.81,3.23-3.63,1.48-.83,3.29-1.24,5.42-1.24v6.09c-.25-.06-.5-.1-.73-.13-.24-.03-.47-.04-.69-.04-1.85,0-3.32.52-4.41,1.55-1.09,1.04-1.64,2.63-1.64,4.79v10.67h-6.55Z"></path><path class="cls-4" d="M283.1,259.79v-29.4h6.85v23.86h14.66v5.54h-21.5Z"></path><path class="cls-4" d="M311.28,234.04c-1.23,0-2.23-.35-2.98-1.05-.76-.7-1.13-1.57-1.13-2.6s.38-1.9,1.13-2.6c.76-.7,1.75-1.05,2.98-1.05s2.19.33,2.96.99c.77.66,1.16,1.51,1.16,2.54,0,1.09-.38,2-1.13,2.71-.76.71-1.75,1.07-2.98,1.07ZM308.01,259.79v-22.6h6.55v22.6h-6.55Z"></path><path class="cls-4" d="M326.82,259.79l-9.49-22.6h6.72l7.9,19.45h-3.36l8.23-19.45h6.26l-9.53,22.6h-6.72Z"></path><path class="cls-4" d="M349.04,234.04c-1.23,0-2.23-.35-2.98-1.05-.76-.7-1.13-1.57-1.13-2.6s.38-1.9,1.13-2.6c.76-.7,1.75-1.05,2.98-1.05s2.19.33,2.96.99c.77.66,1.16,1.51,1.16,2.54,0,1.09-.38,2-1.13,2.71-.76.71-1.75,1.07-2.98,1.07ZM345.76,259.79v-22.6h6.55v22.6h-6.55Z"></path><path class="cls-4" d="M372.14,236.85c1.79,0,3.39.36,4.81,1.07,1.41.71,2.53,1.81,3.34,3.28.81,1.47,1.22,3.35,1.22,5.65v12.94h-6.55v-11.93c0-1.82-.4-3.16-1.2-4.03-.8-.87-1.93-1.3-3.38-1.3-1.04,0-1.97.22-2.79.67-.83.45-1.47,1.11-1.93,1.97-.46.87-.69,2.02-.69,3.44v11.17h-6.55v-22.6h6.26v6.26l-1.18-1.89c.81-1.51,1.97-2.67,3.49-3.49,1.51-.81,3.23-1.22,5.17-1.22Z"></path><path class="cls-4" d="M396.21,258.69c-2.04,0-3.92-.46-5.63-1.37-1.71-.91-3.07-2.18-4.07-3.82-1.01-1.64-1.51-3.55-1.51-5.73s.5-4.14,1.51-5.78c1.01-1.64,2.37-2.9,4.07-3.8,1.71-.9,3.58-1.34,5.63-1.34s3.66.38,5.1,1.15c1.44.77,2.57,1.97,3.38,3.59.81,1.62,1.22,3.68,1.22,6.17s-.41,4.54-1.22,6.15c-.81,1.61-1.94,2.81-3.38,3.59-1.44.78-3.14,1.18-5.1,1.18ZM397.26,268.27c-2.13,0-4.18-.26-6.15-.78-1.97-.52-3.62-1.3-4.94-2.33l2.6-4.75c.98.81,2.19,1.45,3.63,1.91s2.9.69,4.39.69c2.29,0,3.97-.52,5.04-1.55s1.6-2.58,1.6-4.62v-3.36l.42-5.71-.13-5.75v-4.83h6.22v18.82c0,4.17-1.09,7.26-3.28,9.26-2.18,2-5.32,3-9.41,3ZM397.55,253.36c1.15,0,2.17-.24,3.07-.71s1.6-1.13,2.1-1.97.76-1.81.76-2.9-.25-2.09-.76-2.92-1.2-1.46-2.1-1.91-1.92-.67-3.07-.67-2.14.22-3.04.67c-.91.45-1.62,1.08-2.14,1.91-.52.83-.78,1.8-.78,2.92s.26,2.06.78,2.9c.52.84,1.23,1.5,2.14,1.97.91.48,1.92.71,3.04.71Z"></path><path class="cls-1" d="M26.86,145.36L0,205.06h11.34l5.93-13.82h29.86l5.91,13.82h11.68l-26.95-59.7h-10.92ZM21.01,182.55l11.22-26.13,11.18,26.13h-22.4Z"></path><polygon class="cls-1" points="122.96 145.36 101.48 175.07 81.44 145.36 72.32 145.36 72.32 205.06 82.89 205.06 82.89 166.03 98.86 188.47 103.89 188.47 121.59 165.42 121.59 205.06 132.25 205.06 132.08 145.36 122.96 145.36"></polygon><polygon class="cls-1" points="154.79 179.31 183.62 179.31 183.62 170.18 154.79 170.18 154.79 154.75 187.29 154.75 187.29 145.36 143.71 145.36 143.71 205.06 188.48 205.06 188.48 195.68 154.79 195.68 154.79 179.31"></polygon><path class="cls-1" d="M238.2,185.11c3.78-1.71,6.69-4.12,8.74-7.25,2.05-3.13,3.07-6.88,3.07-11.26s-1.02-8.24-3.07-11.43c-2.05-3.18-4.96-5.61-8.74-7.29-3.78-1.68-8.32-2.52-13.6-2.52h-24.56v59.7h11.09v-17.4h13.48c.8,0,1.54-.06,2.31-.1l12.19,17.49h11.94l-13.75-19.61c.3-.12.62-.21.91-.34ZM235.13,157.86c2.47,2.08,3.71,4.99,3.71,8.74s-1.24,6.68-3.71,8.78c-2.47,2.1-6.16,3.16-11.04,3.16h-12.96v-23.79h12.96c4.89,0,8.57,1.04,11.04,3.11Z"></path><rect class="cls-1" x="264.48" y="145.36" width="11.09" height="59.7"></rect><path class="cls-1" d="M306.15,160.12c1.9-1.88,4.15-3.33,6.74-4.35s5.44-1.54,8.57-1.54,5.94.58,8.61,1.75c2.67,1.17,5.12,2.91,7.34,5.25l7.16-6.74c-2.79-3.3-6.2-5.78-10.23-7.46-4.04-1.68-8.5-2.52-13.39-2.52-4.61,0-8.84.75-12.71,2.26-3.87,1.51-7.25,3.65-10.15,6.44-2.9,2.79-5.15,6.03-6.74,9.72-1.59,3.7-2.39,7.79-2.39,12.28s.8,8.58,2.39,12.28c1.59,3.7,3.82,6.94,6.69,9.72,2.87,2.79,6.24,4.93,10.11,6.44,3.87,1.51,8.1,2.26,12.71,2.26,4.95,0,9.44-.85,13.48-2.56,4.04-1.71,7.45-4.21,10.23-7.51l-7.16-6.74c-2.22,2.39-4.66,4.17-7.34,5.33-2.67,1.17-5.54,1.75-8.61,1.75s-5.98-.51-8.57-1.54-4.83-2.47-6.74-4.35c-1.91-1.88-3.4-4.09-4.48-6.65-1.08-2.56-1.62-5.37-1.62-8.44s.54-5.89,1.62-8.44c1.08-2.56,2.57-4.78,4.48-6.65Z"></path><path class="cls-1" d="M374.69,145.36l-26.86,59.7h11.34l5.93-13.82h29.86l5.91,13.82h11.68l-26.95-59.7h-10.92ZM368.84,182.55l11.22-26.13,11.18,26.13h-22.4Z"></path><path class="cls-1" d="M460.89,185.11c3.78-1.71,6.69-4.12,8.74-7.25,2.05-3.13,3.07-6.88,3.07-11.26s-1.02-8.24-3.07-11.43c-2.05-3.18-4.96-5.61-8.74-7.29-3.78-1.68-8.32-2.52-13.6-2.52h-24.56v59.7h11.09v-17.4h13.48c.8,0,1.54-.06,2.31-.1l12.19,17.49h11.94l-13.75-19.61c.3-.12.62-.21.91-.34ZM457.82,157.86c2.47,2.08,3.71,4.99,3.71,8.74s-1.24,6.68-3.71,8.78c-2.47,2.1-6.16,3.16-11.04,3.16h-12.96v-23.79h12.96c4.89,0,8.57,1.04,11.04,3.11Z"></path><polygon class="cls-1" points="497.69 195.68 497.69 179.31 526.52 179.31 526.52 170.18 497.69 170.18 497.69 154.75 530.19 154.75 530.19 145.36 486.61 145.36 486.61 205.06 531.38 205.06 531.38 195.68 497.69 195.68"></polygon><path class="cls-5" d="M256.93,36.26c3.2,0,6,.78,8.22,1.73.36.15.75-.1.75-.49V.54c0-.31-.26-.55-.56-.54-9.22.4-18.28,2.13-26.98,5.15-.3.1-.45.45-.31.74l13.94,30.58c.1.23.36.35.6.29,1.52-.34,2.97-.48,4.36-.48Z"></path><path class="cls-5" d="M242.9,41.55c.72-.57,1.49-1.12,2.33-1.66.22-.14.32-.43.21-.67l-14.02-30.75c-.12-.27-.44-.39-.71-.27-9.27,4.16-17.79,9.81-24.78,16.44-.21.2-.22.53-.03.75l27.19,31.24c.29.33.84.2.92-.24.81-4.19,3.01-10.13,8.9-14.84Z"></path><path class="cls-4" d="M241.53,78.39v41.76c0,.29.24.53.53.53l23.52.02c.29,0,.53-.24.53-.53v-14.81c0-.13-.04-.25-.13-.35-6.02-6.74-15.92-18.12-23.52-26.96-.33-.38-.94-.15-.94.35Z"></path><path class="cls-3" d="M192.15,120.64l41.61.03c.29,0,.53-.24.53-.53v-43.67c0-.48-.59-.72-.92-.37l-41.61,43.64c-.32.34-.08.9.39.9Z"></path><path class="cls-1" d="M184.97,69.31c0,4.93-.04,32.03-.06,46,0,.48.59.71.92.36l46.3-48.58c.19-.2.2-.51.02-.72l-31.08-35.73c-.22-.25-.61-.24-.82,0-9.99,11.73-15.27,25.07-15.27,38.66Z"></path><path class="cls-2" d="M292.1,47.1c-3.13-2.51-6.37-3.78-9.63-3.78-5.48,0-8.49,2.72-9.92,3.89-1.42,1.17-2.48,2.41-2.48,2.41-.1.1-.22.15-.35.15-.13,0-.26-.05-.35-.15,0,0-1.06-1.24-2.48-2.41-1.43-1.18-4.43-3.89-9.92-3.89-3.26,0-6.5,1.27-9.63,3.78-7.93,6.35-6.92,15.74-6.19,18.01.01.03.4,1.04.42,1.07.19.37.85,1.28,3.76,4.54l23.9,27.35c.1.11.29.15.47.14h0s.02,0,.03,0c0,0,.02,0,.03,0h0c.18,0,.37-.04.47-.15l23.9-27.35c2.91-3.26,3.57-4.16,3.76-4.54.02-.03.41-1.04.42-1.07.73-2.27,1.74-11.66-6.19-18.01Z"></path></svg>